<mxfile host="app.diagrams.net" modified="2021-05-08T09:40:53.507Z" agent="5.0 (Windows NT 10.0; Win64; x64) AppleWebKit/537.36 (KHTML, like Gecko) Chrome/89.0.4389.128 Safari/537.36 OPR/75.0.3969.243 (Edition Yx 02)" etag="n07voskJzdkgelGJwmHR" version="14.5.10" type="github">
  <diagram id="2zoqli7h1yREBn1RbxhJ" name="Page-1">
    <mxGraphModel dx="1062" dy="584" grid="1" gridSize="10" guides="1" tooltips="1" connect="1" arrows="1" fold="1" page="1" pageScale="1" pageWidth="1100" pageHeight="850" math="0" shadow="0">
      <root>
        <mxCell id="0" />
        <mxCell id="1" parent="0" />
        <mxCell id="MwAvsLYuFKPgGXnK2ag_-1" value="" style="verticalAlign=top;align=left;shape=cube;size=20;direction=south;fontStyle=0;html=1;boundedLbl=1;spacingLeft=5;strokeColor=#757575;fillColor=#ADADAD;" vertex="1" parent="1">
          <mxGeometry x="740" y="120" width="180" height="190" as="geometry" />
        </mxCell>
        <mxCell id="MwAvsLYuFKPgGXnK2ag_-2" value="Net" style="verticalAlign=top;align=center;shape=cube;size=10;direction=south;html=1;boundedLbl=1;spacingLeft=5;" vertex="1" parent="MwAvsLYuFKPgGXnK2ag_-1">
          <mxGeometry width="120" height="100" relative="1" as="geometry">
            <mxPoint x="-240" y="84" as="offset" />
          </mxGeometry>
        </mxCell>
        <mxCell id="MwAvsLYuFKPgGXnK2ag_-4" value="" style="rounded=0;whiteSpace=wrap;html=1;strokeColor=#757575;fillColor=#FFFFFF;" vertex="1" parent="MwAvsLYuFKPgGXnK2ag_-1">
          <mxGeometry y="18.83" width="160" height="171.17" as="geometry" />
        </mxCell>
        <mxCell id="MwAvsLYuFKPgGXnK2ag_-5" value="Сервер баз данныхх" style="text;html=1;strokeColor=none;fillColor=none;align=center;verticalAlign=middle;whiteSpace=wrap;rounded=0;" vertex="1" parent="MwAvsLYuFKPgGXnK2ag_-1">
          <mxGeometry x="17.68923076923079" y="18.83076923076925" width="124.61538461538461" height="29.23076923076923" as="geometry" />
        </mxCell>
        <mxCell id="MwAvsLYuFKPgGXnK2ag_-21" value="users BD" style="shape=module;align=left;spacingLeft=20;align=center;verticalAlign=top;strokeColor=#757575;fillColor=#FFFFFF;" vertex="1" parent="MwAvsLYuFKPgGXnK2ag_-1">
          <mxGeometry x="30" y="49.41" width="95" height="50" as="geometry" />
        </mxCell>
        <mxCell id="MwAvsLYuFKPgGXnK2ag_-22" value="Car BD" style="shape=module;align=left;spacingLeft=20;align=center;verticalAlign=top;strokeColor=#757575;fillColor=#FFFFFF;" vertex="1" parent="MwAvsLYuFKPgGXnK2ag_-1">
          <mxGeometry x="30" y="109.41" width="95" height="50" as="geometry" />
        </mxCell>
        <mxCell id="MwAvsLYuFKPgGXnK2ag_-14" value="" style="group" vertex="1" connectable="0" parent="1">
          <mxGeometry x="540" y="380" width="130" height="130" as="geometry" />
        </mxCell>
        <mxCell id="MwAvsLYuFKPgGXnK2ag_-8" value="" style="verticalAlign=top;align=center;shape=cube;size=10;direction=south;fontStyle=0;html=1;boundedLbl=1;spacingLeft=5;strokeColor=#757575;fillColor=#ADADAD;" vertex="1" parent="MwAvsLYuFKPgGXnK2ag_-14">
          <mxGeometry width="130" height="130" as="geometry" />
        </mxCell>
        <mxCell id="MwAvsLYuFKPgGXnK2ag_-13" value="" style="rounded=0;whiteSpace=wrap;html=1;strokeColor=#757575;fillColor=#FFFFFF;" vertex="1" parent="MwAvsLYuFKPgGXnK2ag_-14">
          <mxGeometry y="9.285714285714286" width="120" height="120.71428571428572" as="geometry" />
        </mxCell>
        <mxCell id="MwAvsLYuFKPgGXnK2ag_-19" value="user device" style="text;html=1;strokeColor=none;fillColor=none;align=center;verticalAlign=middle;whiteSpace=wrap;rounded=0;" vertex="1" parent="MwAvsLYuFKPgGXnK2ag_-14">
          <mxGeometry x="20" y="20" width="70" height="20" as="geometry" />
        </mxCell>
        <mxCell id="MwAvsLYuFKPgGXnK2ag_-20" value="webcore" style="shape=module;align=left;spacingLeft=20;align=center;verticalAlign=top;strokeColor=#757575;fillColor=#FFFFFF;" vertex="1" parent="MwAvsLYuFKPgGXnK2ag_-14">
          <mxGeometry x="8" y="50" width="100" height="50" as="geometry" />
        </mxCell>
        <mxCell id="MwAvsLYuFKPgGXnK2ag_-23" value="" style="group" vertex="1" connectable="0" parent="1">
          <mxGeometry x="270" y="100" width="160" height="170" as="geometry" />
        </mxCell>
        <mxCell id="MwAvsLYuFKPgGXnK2ag_-24" value="" style="verticalAlign=top;align=center;shape=cube;size=10;direction=south;fontStyle=0;html=1;boundedLbl=1;spacingLeft=5;strokeColor=#757575;fillColor=#ADADAD;" vertex="1" parent="MwAvsLYuFKPgGXnK2ag_-23">
          <mxGeometry width="160" height="170" as="geometry" />
        </mxCell>
        <mxCell id="MwAvsLYuFKPgGXnK2ag_-25" value="" style="rounded=0;whiteSpace=wrap;html=1;strokeColor=#757575;fillColor=#FFFFFF;" vertex="1" parent="MwAvsLYuFKPgGXnK2ag_-23">
          <mxGeometry y="12.142857142857144" width="147.6923076923077" height="157.85714285714286" as="geometry" />
        </mxCell>
        <mxCell id="MwAvsLYuFKPgGXnK2ag_-26" value="Admin device" style="text;html=1;strokeColor=none;fillColor=none;align=center;verticalAlign=middle;whiteSpace=wrap;rounded=0;" vertex="1" parent="MwAvsLYuFKPgGXnK2ag_-23">
          <mxGeometry x="24.615384615384617" y="17.003846153846155" width="98.46153846153847" height="26.153846153846153" as="geometry" />
        </mxCell>
        <mxCell id="MwAvsLYuFKPgGXnK2ag_-27" value="webcore" style="shape=module;align=left;spacingLeft=20;align=center;verticalAlign=top;strokeColor=#757575;fillColor=#FFFFFF;" vertex="1" parent="MwAvsLYuFKPgGXnK2ag_-23">
          <mxGeometry x="18.77" y="46.16" width="110.15" height="50" as="geometry" />
        </mxCell>
        <mxCell id="MwAvsLYuFKPgGXnK2ag_-29" value="Bd control &#xa;system" style="shape=module;align=left;spacingLeft=20;align=center;verticalAlign=top;strokeColor=#757575;fillColor=#FFFFFF;" vertex="1" parent="MwAvsLYuFKPgGXnK2ag_-23">
          <mxGeometry x="18.769999999999982" y="110" width="110.15" height="50" as="geometry" />
        </mxCell>
        <mxCell id="MwAvsLYuFKPgGXnK2ag_-31" value="" style="group" vertex="1" connectable="0" parent="1">
          <mxGeometry x="810" y="470" width="130" height="130" as="geometry" />
        </mxCell>
        <mxCell id="MwAvsLYuFKPgGXnK2ag_-32" value="" style="verticalAlign=top;align=center;shape=cube;size=10;direction=south;fontStyle=0;html=1;boundedLbl=1;spacingLeft=5;strokeColor=#757575;fillColor=#ADADAD;" vertex="1" parent="MwAvsLYuFKPgGXnK2ag_-31">
          <mxGeometry width="130" height="130" as="geometry" />
        </mxCell>
        <mxCell id="MwAvsLYuFKPgGXnK2ag_-33" value="" style="rounded=0;whiteSpace=wrap;html=1;strokeColor=#757575;fillColor=#FFFFFF;" vertex="1" parent="MwAvsLYuFKPgGXnK2ag_-31">
          <mxGeometry y="9.285714285714286" width="120" height="120.71428571428572" as="geometry" />
        </mxCell>
        <mxCell id="MwAvsLYuFKPgGXnK2ag_-34" value="user device" style="text;html=1;strokeColor=none;fillColor=none;align=center;verticalAlign=middle;whiteSpace=wrap;rounded=0;" vertex="1" parent="MwAvsLYuFKPgGXnK2ag_-31">
          <mxGeometry x="20" y="20" width="70" height="20" as="geometry" />
        </mxCell>
        <mxCell id="MwAvsLYuFKPgGXnK2ag_-35" value="webcore" style="shape=module;align=left;spacingLeft=20;align=center;verticalAlign=top;strokeColor=#757575;fillColor=#FFFFFF;" vertex="1" parent="MwAvsLYuFKPgGXnK2ag_-31">
          <mxGeometry x="8" y="50" width="100" height="50" as="geometry" />
        </mxCell>
      </root>
    </mxGraphModel>
  </diagram>
</mxfile>
